# xmcd CD database file
#
# Track frame offsets:
#	150
#	13719
#	28504
#	42269
#	55797
#	64805
#	75185
#	91483
#	105554
#	118279
#	138495
#	155240
#	170049
#	180136
#	188424
#	198726
#	212905
#
# Disc length: 3205 seconds
#
# Revision: 0
# Processed by: cddbd v1.4PL0 Copyright (c) Steve Scherf et al.
# Submitted via: CDex 1.50Beta7
#
DISCID=e60c8311
DTITLE=Hudson Shad - Wand'rin' Stars
DYEAR=2002
DGENRE=Country
TTITLE0=Whoopie Ti Yi Yo
TTITLE1=Tumblin' Tumbleweeds
TTITLE2=The Big Rock Candy Mountain
TTITLE3=Home On The Range
TTITLE4=Rawhide
TTITLE5=Do Not Forsake Me
TTITLE6=Mad Cow Boogie
TTITLE7=Dogies Lullaby
TTITLE8=My Old Ioway Home
TTITLE9=Baghdad Cafe
TTITLE10=Ghost Riders
TTITLE11=Cool Water
TTITLE12=Back In The Saddle
TTITLE13=Yellow Rose Of Texas
TTITLE14=Flowers On The Wall
TTITLE15=The Last Round Up
TTITLE16=Wand'rin' Star
EXTD=YEAR: 2002
EXTT0=
EXTT1=
EXTT2=
EXTT3=
EXTT4=
EXTT5=
EXTT6=
EXTT7=
EXTT8=
EXTT9=
EXTT10=
EXTT11=
EXTT12=
EXTT13=
EXTT14=
EXTT15=
EXTT16=
PLAYORDER=
